<?xml version="1.0" standalone="no"?>
<!DOCTYPE svg PUBLIC "-//W3C//DTD SVG 20010904//EN"
 "http://www.w3.org/TR/2001/REC-SVG-20010904/DTD/svg10.dtd">
<svg version="1.0" xmlns="http://www.w3.org/2000/svg"
 width="860.000000pt" height="700.000000pt" viewBox="0 0 860.000000 700.000000"
 preserveAspectRatio="xMidYMid meet">

<g transform="translate(0.000000,700.000000) scale(0.100000,-0.100000)"
fill="#E10600" stroke="none">
<path d="M4587 6353 c-8 -16 -29 -71 -46 -124 -17 -53 -45 -117 -61 -142 -25
-40 -34 -46 -72 -51 -24 -3 -83 -10 -133 -16 -49 -6 -136 -20 -193 -31 -153
-30 -182 -15 -322 167 -108 140 -113 138 -122 -31 -9 -153 -22 -225 -48 -258
-10 -13 -49 -36 -87 -52 -37 -16 -126 -58 -198 -93 -193 -96 -223 -92 -418 54
-54 41 -104 74 -111 74 -26 0 -25 -28 5 -146 33 -136 36 -222 11 -275 -9 -20
-42 -58 -72 -85 -30 -26 -90 -81 -133 -122 l-77 -75 -73 5 c-52 4 -101 17
-176 47 -116 46 -151 51 -151 23 0 -10 25 -61 56 -113 31 -51 65 -116 75 -142
32 -80 26 -107 -47 -233 l-66 -114 -501 0 c-481 0 -503 -1 -534 -20 -55 -33
-61 -116 -13 -165 20 -19 34 -20 513 -25 l492 -5 -3 -67 c-5 -129 -90 -400
-164 -528 -52 -88 -101 -160 -110 -160 -5 0 -35 23 -66 51 -148 131 -382 264
-586 331 -216 71 -510 104 -571 64 -40 -26 -59 -79 -44 -123 17 -54 53 -69
177 -76 325 -19 635 -146 888 -364 30 -26 54 -50 54 -55 0 -13 -129 -116 -215
-173 -220 -145 -462 -225 -722 -241 -130 -8 -164 -23 -182 -77 -10 -28 -9 -42
3 -70 24 -58 53 -70 159 -69 357 6 771 171 1043 416 29 25 56 46 60 46 12 0
72 -88 116 -170 76 -139 145 -356 164 -514 5 -44 3 -60 -7 -67 -8 -5 -229 -9
-492 -9 l-479 0 -29 -29 c-29 -29 -33 -43 -29 -91 3 -37 17 -58 50 -75 25 -13
102 -15 528 -15 l498 0 67 -112 c92 -154 91 -173 -25 -373 -32 -55 -58 -108
-58 -117 0 -28 34 -22 150 23 76 30 125 43 176 47 l72 4 98 -92 c54 -51 115
-106 136 -123 75 -60 86 -152 37 -341 -44 -175 -36 -180 103 -75 196 149 230
154 423 57 72 -35 161 -77 198 -93 38 -16 77 -39 87 -52 26 -33 39 -105 48
-258 9 -168 15 -170 116 -37 83 110 142 166 192 182 27 9 53 7 131 -9 54 -10
141 -24 193 -31 52 -6 114 -13 138 -16 38 -5 47 -11 72 -51 16 -25 44 -89 61
-142 65 -197 80 -199 139 -16 27 82 72 176 94 194 8 7 58 16 111 21 117 12
258 34 376 60 49 11 95 20 102 20 27 0 106 -81 176 -179 38 -54 77 -101 86
-105 24 -9 31 24 38 161 5 94 11 135 29 179 l23 58 130 56 c72 31 153 68 182
83 103 53 177 33 342 -92 144 -108 152 -101 100 96 -24 91 -30 132 -26 179 2
34 8 67 11 73 4 6 45 43 91 81 47 39 128 114 181 167 l97 95 51 -6 c28 -3 98
-21 155 -41 119 -40 161 -44 161 -17 0 9 -32 64 -70 122 -39 58 -78 129 -87
157 l-17 53 52 107 c71 149 87 193 127 353 41 165 63 222 110 296 20 30 145
165 279 299 244 245 259 264 248 320 -3 17 -96 118 -257 280 -303 306 -310
317 -379 582 -49 188 -48 184 -124 345 -55 116 -55 117 -42 163 7 25 46 98 86
163 41 64 74 122 74 128 0 25 -30 21 -146 -17 -65 -21 -142 -42 -170 -45 l-51
-6 -94 93 c-52 52 -132 126 -178 164 -49 41 -89 82 -97 102 -21 50 -17 117 16
242 50 191 42 198 -101 90 -175 -133 -236 -146 -367 -80 -42 21 -117 55 -167
76 -49 20 -100 46 -112 57 -34 31 -53 103 -59 218 -10 212 -19 217 -124 70
-69 -96 -150 -180 -174 -180 -7 0 -53 9 -102 20 -122 26 -263 49 -379 60 -53
5 -103 14 -111 21 -22 18 -67 112 -94 194 -44 138 -66 163 -93 108z m310 -544
c694 -76 1389 -418 1763 -867 97 -116 153 -199 209 -310 61 -121 78 -169 121
-338 42 -166 93 -289 159 -377 23 -31 122 -137 221 -236 121 -121 180 -187
180 -201 0 -14 -59 -80 -180 -201 -99 -99 -198 -205 -221 -236 -66 -88 -117
-211 -159 -377 -43 -169 -60 -217 -121 -338 -177 -352 -514 -657 -974 -883
-623 -306 -1274 -387 -1890 -235 -717 176 -1350 627 -1651 1174 -34 62 -38 79
-46 175 -23 303 -119 586 -281 824 l-66 97 65 95 c161 238 264 534 280 806 7
125 27 174 129 324 246 362 630 676 1065 871 317 141 630 220 985 248 70 5
308 -3 412 -15z"/>
<path d="M3770 3925 l0 -245 50 0 50 0 0 245 0 245 -50 0 -50 0 0 -245z"/>
<path d="M4750 4065 c0 -58 -2 -105 -5 -105 -3 0 -17 7 -31 16 -17 12 -39 15
-74 12 -55 -6 -90 -30 -117 -82 -19 -37 -19 -116 1 -155 35 -67 123 -97 189
-63 29 16 37 17 37 6 0 -10 14 -14 50 -14 l50 0 0 245 0 245 -50 0 -50 0 0
-105z m-17 -182 c43 -49 7 -123 -59 -123 -21 0 -64 46 -64 68 0 11 9 31 21 46
24 31 77 36 102 9z"/>
<path d="M3957 4142 c-35 -38 -10 -92 42 -92 15 0 32 5 39 12 17 17 15 64 -4
82 -21 21 -57 20 -77 -2z"/>
<path d="M2581 4113 c-12 -24 -161 -417 -161 -427 0 -4 25 -6 57 -4 55 3 57 4
68 38 l12 35 88 0 88 0 12 -35 c11 -34 13 -35 72 -38 l60 -3 -85 226 -86 225
-58 0 c-44 0 -59 -4 -67 -17z m97 -200 c11 -34 18 -64 14 -67 -7 -8 -87 -8
-95 0 -4 5 11 59 38 133 8 21 20 3 43 -66z"/>
<path d="M5104 4116 c-3 -8 -4 -29 -2 -48 3 -32 5 -33 51 -36 l47 -3 0 -175 0
-174 55 0 55 0 0 175 0 175 50 0 50 0 0 50 0 50 -150 0 c-120 0 -152 -3 -156
-14z"/>
<path d="M3071 3974 c-17 -13 -26 -14 -29 -6 -2 7 -24 12 -53 12 l-49 0 0
-225 0 -225 50 0 50 0 0 86 c0 65 3 84 13 80 57 -23 85 -27 124 -17 112 30
145 187 57 272 -27 26 -43 33 -86 36 -39 3 -59 0 -77 -13z m89 -96 c11 -12 20
-32 20 -45 0 -27 -41 -73 -65 -73 -20 0 -57 19 -67 34 -13 20 -8 69 9 88 23
25 77 24 103 -4z"/>
<path d="M3481 3974 c-17 -13 -26 -14 -29 -6 -2 7 -24 12 -53 12 l-49 0 0
-225 0 -225 50 0 50 0 0 86 c0 65 3 84 13 80 57 -23 85 -27 124 -17 112 30
145 187 57 272 -27 26 -43 33 -86 36 -39 3 -59 0 -77 -13z m89 -96 c11 -12 20
-32 20 -45 0 -27 -41 -73 -65 -73 -20 0 -57 19 -67 34 -13 20 -8 69 9 88 23
25 77 24 103 -4z"/>
<path d="M4201 3972 c-47 -25 -71 -74 -71 -142 0 -71 26 -115 83 -140 81 -37
189 -13 222 49 l16 31 -51 0 c-29 0 -61 -7 -74 -15 -42 -28 -96 1 -96 49 0 14
17 16 110 16 l110 0 0 31 c0 44 -38 106 -76 124 -44 21 -131 19 -173 -3z m142
-64 l22 -23 -32 -3 c-18 -2 -50 -2 -70 0 l-38 3 23 23 c12 12 33 22 47 22 14
0 35 -10 48 -22z"/>
<path d="M5501 3972 c-47 -25 -71 -74 -71 -142 0 -71 26 -115 83 -140 81 -37
189 -13 222 49 l16 31 -51 0 c-29 0 -61 -7 -74 -15 -42 -28 -96 1 -96 49 0 14
17 16 110 16 l110 0 0 31 c0 44 -38 106 -76 124 -44 21 -131 19 -173 -3z m142
-64 l22 -23 -32 -3 c-18 -2 -50 -2 -70 0 l-38 3 23 23 c12 12 33 22 47 22 14
0 35 -10 48 -22z"/>
<path d="M5910 3983 c-24 -9 -61 -45 -77 -77 -19 -37 -19 -116 1 -155 35 -67
123 -97 189 -63 29 16 37 17 37 6 0 -10 14 -14 50 -14 l50 0 0 150 0 150 -49
0 c-29 0 -51 -5 -53 -12 -3 -8 -11 -7 -28 5 -24 16 -88 22 -120 10z m133 -100
c43 -49 7 -123 -59 -123 -23 0 -64 46 -64 73 0 56 86 91 123 50z"/>
<path d="M6388 3971 c-31 -17 -38 -18 -38 -6 0 11 -12 15 -50 15 l-50 0 0
-150 0 -150 50 0 50 0 0 99 c0 105 10 131 50 131 40 0 50 -26 50 -131 l0 -99
50 0 50 0 0 79 c0 118 24 164 74 145 27 -10 36 -47 36 -140 l0 -84 50 0 50 0
0 110 c0 136 -12 173 -64 190 -43 14 -88 6 -112 -21 -22 -24 -32 -24 -60 2
-32 30 -91 35 -136 10z"/>
<path d="M3950 3830 l0 -150 50 0 50 0 0 150 0 150 -50 0 -50 0 0 -150z"/>
<path d="M6586 3381 c-4 -5 6 -27 20 -50 23 -34 30 -39 46 -30 18 10 17 12 -9
49 -27 39 -46 49 -57 31z"/>
<path d="M2640 3320 c0 -47 -3 -60 -15 -60 -10 0 -15 11 -15 35 0 31 -3 35
-25 35 -23 0 -25 -4 -25 -46 0 -25 -5 -66 -12 -91 -10 -41 -9 -47 7 -59 24
-18 31 -11 39 31 5 26 12 35 27 35 18 0 20 -6 17 -62 l-3 -62 -40 -12 c-35 -9
-40 -14 -40 -40 0 -20 4 -28 14 -26 8 2 27 6 43 9 l28 6 0 -92 0 -91 30 0 30
0 0 105 c0 93 2 105 19 115 25 13 31 13 31 -2 0 -10 26 -12 105 -10 l105 3 0
-70 c0 -76 -4 -81 -57 -73 -31 4 -32 4 -24 -24 7 -26 12 -29 57 -32 73 -3 78
3 84 105 l5 88 28 0 c23 -1 27 3 27 27 0 25 -4 28 -31 28 -27 0 -30 3 -27 28
3 23 7 27 31 24 24 -2 27 0 27 28 l0 30 -70 0 -70 0 0 30 0 30 60 0 60 0 0 30
0 30 -60 0 -60 0 0 30 c0 27 -3 30 -30 30 -27 0 -30 -3 -30 -30 0 -30 -1 -30
-55 -30 -54 0 -55 0 -55 -30 0 -30 1 -30 55 -30 54 0 55 0 55 -30 l0 -30 -65
0 -65 0 0 30 c0 25 -4 30 -25 30 -24 0 -25 3 -25 60 l0 60 -30 0 -30 0 0 -60z
m108 -150 c3 -25 3 -25 105 -25 l102 0 3 -27 3 -28 -100 0 c-61 0 -102 4 -107
11 -3 6 -17 8 -30 5 -23 -6 -24 -4 -24 45 0 47 2 50 23 47 15 -2 23 -11 25
-28z"/>
<path d="M3812 3328 l3 -53 -32 -3 c-29 -3 -33 -7 -33 -32 0 -25 4 -29 33 -32
31 -3 32 -4 32 -53 0 -48 -1 -50 -32 -60 -29 -8 -33 -14 -33 -42 0 -31 1 -32
26 -23 37 14 44 6 44 -55 0 -72 -6 -85 -42 -85 -23 0 -29 -4 -24 -16 3 -9 6
-20 6 -25 0 -13 84 -11 98 3 8 8 12 47 12 110 0 86 2 98 19 108 27 14 31 13
31 -10 0 -16 8 -19 58 -22 l57 -3 -45 -45 c-25 -25 -56 -52 -69 -61 -21 -13
-22 -18 -12 -37 18 -33 36 -27 95 33 29 30 55 55 57 55 2 0 3 -34 1 -75 l-4
-75 31 0 31 0 0 83 0 82 36 -42 c19 -23 51 -52 71 -64 35 -22 36 -22 49 -4 21
28 17 39 -20 59 -19 10 -51 36 -72 57 l-38 39 67 0 67 0 0 30 0 30 -80 0 c-73
0 -80 2 -80 20 0 16 -7 20 -30 20 -23 0 -30 -4 -30 -20 0 -18 -7 -20 -70 -20
-64 0 -70 2 -70 20 0 17 -5 19 -25 14 -24 -6 -25 -4 -25 35 0 37 2 41 25 41
21 0 25 5 25 30 0 25 -4 30 -25 30 -24 0 -25 3 -25 55 0 55 0 55 -30 55 -31 0
-31 0 -28 -52z"/>
<path d="M4162 3359 c-34 -10 -102 -21 -151 -24 l-89 -7 10 -24 c14 -29 50
-31 178 -10 164 28 162 27 132 62 -17 20 -18 20 -80 3z"/>
<path d="M3170 3335 c0 -25 1 -25 90 -25 89 0 90 0 90 25 0 25 -1 25 -90 25
-89 0 -90 0 -90 -25z"/>
<path d="M3417 3300 c-4 -44 -12 -70 -31 -95 l-26 -34 22 -15 c35 -25 62 8 83
99 11 46 14 50 41 50 29 0 29 -1 32 -60 3 -69 17 -85 72 -85 53 0 80 23 80 69
0 27 -5 41 -16 45 -9 4 -18 5 -18 4 -1 -2 -6 -16 -12 -33 -5 -16 -16 -30 -24
-30 -12 0 -16 17 -18 73 l-3 72 -88 0 -88 0 -6 -60z"/>
<path d="M4400 3278 c0 -152 -18 -304 -40 -355 l-21 -47 23 -18 c13 -10 26
-18 30 -18 9 0 43 94 52 143 l7 37 69 0 70 0 0 -85 0 -85 30 0 30 0 0 85 0 85
75 0 75 0 0 -60 0 -60 -51 0 c-48 0 -51 -1 -45 -22 3 -13 6 -26 6 -30 0 -5 25
-8 55 -8 42 0 60 5 75 20 19 19 20 33 20 260 l0 240 -230 0 -230 0 0 -82z
m190 -18 l0 -40 -65 0 -65 0 0 40 0 40 65 0 65 0 0 -40z m210 0 l0 -40 -75 0
-75 0 0 40 0 40 75 0 75 0 0 -40z m-210 -140 l0 -40 -70 0 -70 0 0 33 c0 19 3
37 7 40 3 4 35 7 70 7 l63 0 0 -40z m210 0 l0 -40 -75 0 -75 0 0 40 0 40 75 0
75 0 0 -40z"/>
<path d="M6507 3344 c-4 -4 4 -19 17 -35 13 -16 26 -34 28 -40 2 -7 12 -9 26
-5 l21 7 -26 40 c-23 36 -50 49 -66 33z"/>
<path d="M6210 3315 c-7 -14 -11 -26 -9 -27 2 -2 37 -20 76 -40 l73 -37 16 30
c8 17 14 32 12 34 -8 8 -134 65 -144 65 -6 0 -17 -11 -24 -25z"/>
<path d="M5327 3302 c-22 -25 -21 -75 1 -95 40 -37 105 -7 105 48 0 56 -70 87
-106 47z m81 -44 c4 -34 -27 -54 -58 -38 -21 11 -25 27 -14 55 5 11 16 15 38
13 25 -2 32 -8 34 -30z"/>
<path d="M3150 3253 l0 -28 105 3 c104 3 105 4 105 28 0 24 0 24 -105 24
l-105 0 0 -27z"/>
<path d="M4193 3213 c-25 -50 -30 -69 -20 -75 24 -16 37 -7 67 45 30 52 38 87
21 87 -5 0 -15 2 -23 5 -8 3 -24 -18 -45 -62z"/>
<path d="M4067 3263 c-10 -3 -16 -10 -13 -16 2 -7 10 -29 17 -49 12 -39 23
-45 49 -28 13 8 13 14 0 51 -16 44 -23 50 -53 42z"/>
<path d="M5079 3233 c-19 -21 -59 -67 -89 -102 -52 -62 -53 -64 -37 -89 8 -15
20 -28 25 -30 5 -1 42 38 82 88 39 49 76 90 82 90 6 0 72 -63 147 -140 75 -77
141 -140 147 -140 6 0 17 15 26 33 l16 33 -60 50 c-33 27 -101 93 -152 147
-109 115 -129 121 -187 60z"/>
<path d="M3943 3244 c-17 -8 28 -103 49 -104 27 0 31 19 13 66 -16 42 -30 51
-62 38z"/>
<path d="M6555 3193 c-24 -56 -90 -138 -139 -172 -50 -35 -179 -81 -226 -81
-30 0 -31 -1 -25 -32 4 -18 11 -37 15 -41 12 -14 157 30 232 70 79 41 147 111
188 193 l27 55 -28 23 -28 23 -16 -38z"/>
<path d="M6165 3174 c-9 -14 -15 -27 -13 -29 2 -1 23 -13 48 -25 25 -12 58
-32 73 -42 16 -11 30 -19 31 -17 9 10 26 49 26 58 0 9 -129 81 -144 81 -2 0
-11 -12 -21 -26z"/>
<path d="M3170 3165 c0 -25 0 -25 91 -25 88 0 90 1 87 23 -3 21 -8 22 -90 25
l-88 3 0 -26z"/>
<path d="M5530 3108 l0 -38 256 0 255 0 -3 35 -3 36 -253 2 -252 2 0 -37z"/>
<path d="M3380 3100 c0 -20 5 -30 15 -30 8 0 15 -6 15 -13 0 -8 14 -33 30 -55
17 -23 30 -46 30 -51 0 -8 -99 -61 -114 -61 -3 0 -6 29 -6 65 l0 65 -90 0 -90
0 0 -95 c0 -95 0 -95 25 -95 16 0 25 6 25 15 0 17 65 22 75 5 11 -17 55 -12
55 7 0 14 2 14 21 -3 21 -19 22 -19 88 17 l67 36 34 -22 c19 -12 50 -27 69
-35 30 -12 35 -12 47 5 22 30 17 40 -33 58 -80 29 -79 27 -34 97 70 109 60
120 -106 120 l-123 0 0 -30z m194 -29 c8 -12 -37 -76 -54 -76 -17 0 -62 64
-54 76 3 5 27 9 54 9 27 0 51 -4 54 -9z m-276 -128 c-3 -24 -8 -28 -40 -31
-36 -3 -38 -2 -38 27 0 30 2 31 41 31 38 0 40 -1 37 -27z"/>
<path d="M3170 3085 c0 -25 0 -25 91 -25 88 0 90 1 87 23 -3 21 -8 22 -90 25
l-88 3 0 -26z"/>
<path d="M2796 3015 c-17 -13 -17 -16 15 -59 36 -51 36 -51 62 -32 22 17 14
36 -30 78 -25 23 -30 25 -47 13z"/>
</g>
</svg>
